<?xml version="1.0" encoding="utf-8"?>
<svg xmlns="http://www.w3.org/2000/svg" width="372" height="488" viewBox="0 0 372 488" role="img" aria-label="L08 level preview">
<style>
  .background { fill: #f7f3ea; }
  .header-title { fill: #1f2933; font: 700 18px Arial, sans-serif; }
  .header-meta { fill: #52606d; font: 12px Arial, sans-serif; }
  .cell { stroke: #9aa5b1; stroke-width: 1; rx: 4; ry: 4; }
  .cell-empty { fill: #ffffff; }
  .cell-debris { fill: #eef2f7; }
  .cell-crate { fill: #c68b59; }
  .cell-crate-reinforced { fill: #9f5f33; }
  .cell-ice { fill: #c8ebff; }
  .cell-vine { fill: #b8d98b; }
  .cell-target { fill: #ffd7d2; stroke: #d64545; stroke-width: 2; }
  .tile-code { fill: #1f2933; font: 700 14px Arial, sans-serif; text-anchor: middle; dominant-baseline: central; }
  .target-label { fill: #8a1c1c; }
  .flooded-row-marker { fill: #2f80ed; fill-opacity: 0.25; stroke: #1f6fd1; stroke-width: 2; }
  .forecast-row-marker { fill: none; stroke: #2f80ed; stroke-width: 3; stroke-dasharray: 8 5; }
  .target-neighbor-outline { fill: none; stroke: #f59e0b; stroke-width: 3; stroke-dasharray: 4 4; pointer-events: none; }
</style>
<rect class="background" x="0" y="0" width="100%" height="100%" />
<text class="header-title" x="18" y="30">L08 - Vine Growth Tutorial</text>
<text class="header-meta" x="18" y="55">board 7x8 | water interval 12 | flooded rows 0 | dock jam False | assistance 0.9</text>
<rect class="cell cell-debris" data-row="0" data-col="0" x="18" y="86" width="48" height="48" />
<text class="tile-code" x="42" y="110">F</text>
<rect class="cell cell-debris" data-row="0" data-col="1" x="66" y="86" width="48" height="48" />
<text class="tile-code" x="90" y="110">F</text>
<rect class="cell cell-empty" data-row="0" data-col="2" x="114" y="86" width="48" height="48" />
<text class="tile-code" x="138" y="110">.</text>
<rect class="cell cell-debris" data-row="0" data-col="3" x="162" y="86" width="48" height="48" />
<text class="tile-code" x="186" y="110">A</text>
<rect class="cell cell-debris" data-row="0" data-col="4" x="210" y="86" width="48" height="48" />
<text class="tile-code" x="234" y="110">A</text>
<rect class="cell cell-empty" data-row="0" data-col="5" x="258" y="86" width="48" height="48" />
<text class="tile-code" x="282" y="110">.</text>
<rect class="cell cell-debris" data-row="0" data-col="6" x="306" y="86" width="48" height="48" />
<text class="tile-code" x="330" y="110">E</text>
<rect class="cell cell-empty" data-row="1" data-col="0" x="18" y="134" width="48" height="48" />
<text class="tile-code" x="42" y="158">.</text>
<rect class="cell cell-debris" data-row="1" data-col="1" x="66" y="134" width="48" height="48" />
<text class="tile-code" x="90" y="158">C</text>
<rect class="cell cell-empty" data-row="1" data-col="2" x="114" y="134" width="48" height="48" />
<text class="tile-code" x="138" y="158">.</text>
<rect class="cell cell-vine" data-row="1" data-col="3" x="162" y="134" width="48" height="48" />
<text class="tile-code" x="186" y="158">V</text>
<rect class="cell cell-debris" data-row="1" data-col="4" x="210" y="134" width="48" height="48" />
<text class="tile-code" x="234" y="158">B</text>
<rect class="cell cell-debris" data-row="1" data-col="5" x="258" y="134" width="48" height="48" />
<text class="tile-code" x="282" y="158">B</text>
<rect class="cell cell-debris" data-row="1" data-col="6" x="306" y="134" width="48" height="48" />
<text class="tile-code" x="330" y="158">F</text>
<rect class="cell cell-debris" data-row="2" data-col="0" x="18" y="182" width="48" height="48" />
<text class="tile-code" x="42" y="206">D</text>
<rect class="cell cell-debris" data-row="2" data-col="1" x="66" y="182" width="48" height="48" />
<text class="tile-code" x="90" y="206">C</text>
<rect class="cell cell-debris" data-row="2" data-col="2" x="114" y="182" width="48" height="48" />
<text class="tile-code" x="138" y="206">C</text>
<rect class="cell cell-vine" data-row="2" data-col="3" x="162" y="182" width="48" height="48" />
<text class="tile-code" x="186" y="206">V</text>
<rect class="cell cell-debris" data-row="2" data-col="4" x="210" y="182" width="48" height="48" />
<text class="tile-code" x="234" y="206">A</text>
<rect class="cell cell-debris" data-row="2" data-col="5" x="258" y="182" width="48" height="48" />
<text class="tile-code" x="282" y="206">F</text>
<rect class="cell cell-empty" data-row="2" data-col="6" x="306" y="182" width="48" height="48" />
<text class="tile-code" x="330" y="206">.</text>
<rect class="cell cell-empty" data-row="3" data-col="0" x="18" y="230" width="48" height="48" />
<text class="tile-code" x="42" y="254">.</text>
<rect class="cell cell-debris" data-row="3" data-col="1" x="66" y="230" width="48" height="48" />
<text class="tile-code" x="90" y="254">D</text>
<rect class="cell cell-debris" data-row="3" data-col="2" x="114" y="230" width="48" height="48" />
<text class="tile-code" x="138" y="254">D</text>
<rect class="cell cell-empty" data-row="3" data-col="3" x="162" y="230" width="48" height="48" />
<text class="tile-code" x="186" y="254">.</text>
<rect class="cell cell-debris" data-row="3" data-col="4" x="210" y="230" width="48" height="48" />
<text class="tile-code" x="234" y="254">A</text>
<rect class="cell cell-debris" data-row="3" data-col="5" x="258" y="230" width="48" height="48" />
<text class="tile-code" x="282" y="254">C</text>
<rect class="cell cell-debris" data-row="3" data-col="6" x="306" y="230" width="48" height="48" />
<text class="tile-code" x="330" y="254">C</text>
<rect class="cell cell-debris" data-row="4" data-col="0" x="18" y="278" width="48" height="48" />
<text class="tile-code" x="42" y="302">B</text>
<rect class="cell cell-debris" data-row="4" data-col="1" x="66" y="278" width="48" height="48" />
<text class="tile-code" x="90" y="302">B</text>
<rect class="cell cell-crate" data-row="4" data-col="2" x="114" y="278" width="48" height="48" />
<text class="tile-code" x="138" y="302">CR</text>
<rect class="cell cell-target" data-row="4" data-col="3" x="162" y="278" width="48" height="48" />
<text class="tile-code target-label" x="186" y="302">T0</text>
<rect class="cell cell-empty" data-row="4" data-col="4" x="210" y="278" width="48" height="48" />
<text class="tile-code" x="234" y="302">.</text>
<rect class="cell cell-debris" data-row="4" data-col="5" x="258" y="278" width="48" height="48" />
<text class="tile-code" x="282" y="302">C</text>
<rect class="cell cell-debris" data-row="4" data-col="6" x="306" y="278" width="48" height="48" />
<text class="tile-code" x="330" y="302">C</text>
<rect class="cell cell-debris" data-row="5" data-col="0" x="18" y="326" width="48" height="48" />
<text class="tile-code" x="42" y="350">D</text>
<rect class="cell cell-debris" data-row="5" data-col="1" x="66" y="326" width="48" height="48" />
<text class="tile-code" x="90" y="350">A</text>
<rect class="cell cell-debris" data-row="5" data-col="2" x="114" y="326" width="48" height="48" />
<text class="tile-code" x="138" y="350">A</text>
<rect class="cell cell-vine" data-row="5" data-col="3" x="162" y="326" width="48" height="48" />
<text class="tile-code" x="186" y="350">V</text>
<rect class="cell cell-empty" data-row="5" data-col="4" x="210" y="326" width="48" height="48" />
<text class="tile-code" x="234" y="350">.</text>
<rect class="cell cell-debris" data-row="5" data-col="5" x="258" y="326" width="48" height="48" />
<text class="tile-code" x="282" y="350">F</text>
<rect class="cell cell-debris" data-row="5" data-col="6" x="306" y="326" width="48" height="48" />
<text class="tile-code" x="330" y="350">E</text>
<rect class="cell cell-debris" data-row="6" data-col="0" x="18" y="374" width="48" height="48" />
<text class="tile-code" x="42" y="398">D</text>
<rect class="cell cell-empty" data-row="6" data-col="1" x="66" y="374" width="48" height="48" />
<text class="tile-code" x="90" y="398">.</text>
<rect class="cell cell-crate" data-row="6" data-col="2" x="114" y="374" width="48" height="48" />
<text class="tile-code" x="138" y="398">CR</text>
<rect class="cell cell-vine" data-row="6" data-col="3" x="162" y="374" width="48" height="48" />
<text class="tile-code" x="186" y="398">V</text>
<rect class="cell cell-crate" data-row="6" data-col="4" x="210" y="374" width="48" height="48" />
<text class="tile-code" x="234" y="398">CR</text>
<rect class="cell cell-debris" data-row="6" data-col="5" x="258" y="374" width="48" height="48" />
<text class="tile-code" x="282" y="398">B</text>
<rect class="cell cell-debris" data-row="6" data-col="6" x="306" y="374" width="48" height="48" />
<text class="tile-code" x="330" y="398">E</text>
<rect class="cell cell-empty" data-row="7" data-col="0" x="18" y="422" width="48" height="48" />
<text class="tile-code" x="42" y="446">.</text>
<rect class="cell cell-empty" data-row="7" data-col="1" x="66" y="422" width="48" height="48" />
<text class="tile-code" x="90" y="446">.</text>
<rect class="cell cell-empty" data-row="7" data-col="2" x="114" y="422" width="48" height="48" />
<text class="tile-code" x="138" y="446">.</text>
<rect class="cell cell-empty" data-row="7" data-col="3" x="162" y="422" width="48" height="48" />
<text class="tile-code" x="186" y="446">.</text>
<rect class="cell cell-empty" data-row="7" data-col="4" x="210" y="422" width="48" height="48" />
<text class="tile-code" x="234" y="446">.</text>
<rect class="cell cell-empty" data-row="7" data-col="5" x="258" y="422" width="48" height="48" />
<text class="tile-code" x="282" y="446">.</text>
<rect class="cell cell-empty" data-row="7" data-col="6" x="306" y="422" width="48" height="48" />
<text class="tile-code" x="330" y="446">.</text>
<rect class="forecast-row-marker" data-row="7" x="18" y="422" width="336" height="48" />
<rect class="target-neighbor-outline" data-target="0" data-row="3" data-col="3" x="166" y="234" width="40" height="40" />
<rect class="target-neighbor-outline" data-target="0" data-row="4" data-col="4" x="214" y="282" width="40" height="40" />
<rect class="target-neighbor-outline" data-target="0" data-row="5" data-col="3" x="166" y="330" width="40" height="40" />
<rect class="target-neighbor-outline" data-target="0" data-row="4" data-col="2" x="118" y="282" width="40" height="40" />
</svg>
